<svg width="19" height="17" viewBox="0 0 19 17" fill="none" xmlns="http://www.w3.org/2000/svg">
<path d="M18.25 6.83745C18.3375 6.39995 17.9875 5.87495 17.55 5.87495L12.5625 5.17495L10.2875 0.624946C10.2 0.449946 10.1125 0.362446 9.9375 0.274946C9.5 0.012446 8.975 0.187446 8.7125 0.624946L6.525 5.17495L1.5375 5.87495C1.275 5.87495 1.1 5.96245 1.0125 6.13745C0.6625 6.48745 0.6625 7.01245 1.0125 7.36245L4.6 10.8624L3.725 15.8499C3.725 16.0249 3.725 16.1999 3.8125 16.3749C4.075 16.8124 4.6 16.9874 5.0375 16.7249L9.5 14.3624L13.9625 16.7249C14.05 16.8124 14.225 16.8124 14.4 16.8124C14.4875 16.8124 14.4875 16.8124 14.575 16.8124C15.0125 16.7249 15.3625 16.2874 15.275 15.7624L14.4 10.7749L17.9875 7.27495C18.1625 7.18745 18.25 7.01245 18.25 6.83745Z" fill="#FF3E3E"/>
</svg>
